# xmcd CD database file
#
# Track frame offsets:
#	150
#	22260
#	54607
#	94345
#	121807
#	151965
#	165570
#	176637
#	214000
#	240507
#
# Disc length: 3356 seconds
#
# Revision: 0
# Processed by: cddbd v1.5.2PL0 Copyright (c) Steve Scherf et al.
# Submitted via: CDex 1.51
#
DISCID=810d1a0a
DTITLE=Olivier Lanoë et les phonanbules - Papote
DYEAR=1900
DGENRE=New Age
TTITLE0=Ké axo
TTITLE1=Papote
TTITLE2=Kassika
TTITLE3=Djo
TTITLE4=Tché ka déssa
TTITLE5=Irniba
TTITLE6=Tsé Ké Tsé
TTITLE7=Oyné Kolotzé
TTITLE8=Swé Yo
TTITLE9=Tembélégué 01
EXTD=
EXTT0=
EXTT1=
EXTT2=
EXTT3=
EXTT4=
EXTT5=
EXTT6=
EXTT7=
EXTT8=
EXTT9=
PLAYORDER=
